<?xml version="1.0" encoding="UTF-8"?>
<svg xmlns="http://www.w3.org/2000/svg" xmlns:xlink="http://www.w3.org/1999/xlink" width="810pt" height="809.999993pt" viewBox="0 0 810 809.999993" version="1.2">
<defs>
<clipPath id="clip1">
  <path d="M 201.910156 201.910156 L 608.410156 201.910156 L 608.410156 608.410156 L 201.910156 608.410156 Z M 201.910156 201.910156 "/>
</clipPath>
</defs>
<g id="surface1">
<rect x="0" y="0" width="810" height="809.999993" style="fill:rgb(100%,100%,100%);fill-opacity:1;stroke:none;"/>
<rect x="0" y="0" width="810" height="809.999993" style="fill:rgb(100%,100%,100%);fill-opacity:1;stroke:none;"/>
<rect x="0" y="0" width="810" height="809.999993" style="fill:rgb(100%,100%,100%);fill-opacity:1;stroke:none;"/>
<g clip-path="url(#clip1)" clip-rule="nonzero">
<path style=" stroke:none;fill-rule:nonzero;fill:rgb(0%,0%,0%);fill-opacity:1;" d="M 563.535156 201.910156 L 247.113281 201.910156 C 222.140625 201.910156 201.910156 222.140625 201.910156 247.113281 L 201.910156 563.535156 C 201.910156 588.511719 222.140625 608.738281 247.113281 608.738281 L 563.535156 608.738281 C 588.511719 608.738281 608.738281 588.511719 608.738281 563.535156 L 608.738281 247.113281 C 608.738281 222.140625 588.511719 201.910156 563.535156 201.910156 Z M 405.324219 269.714844 C 443.746094 269.714844 473.128906 299.097656 473.128906 337.519531 C 473.128906 375.941406 443.746094 405.324219 405.324219 405.324219 C 366.902344 405.324219 337.519531 375.941406 337.519531 337.519531 C 337.519531 299.097656 366.902344 269.714844 405.324219 269.714844 Z M 529.632812 540.933594 L 281.015625 540.933594 C 274.777344 540.933594 269.714844 535.871094 269.714844 529.632812 L 269.714844 518.332031 C 269.714844 482.824219 331.238281 450.527344 405.324219 450.527344 C 479.414062 450.527344 540.933594 482.824219 540.933594 518.332031 L 540.933594 529.632812 C 540.933594 535.871094 535.871094 540.933594 529.632812 540.933594 Z M 529.632812 540.933594 "/>
</g>
</g>
</svg>
