<?xml version="1.0" encoding="UTF-8"?>
<svg xmlns="http://www.w3.org/2000/svg" xmlns:xlink="http://www.w3.org/1999/xlink" width="810pt" height="809.999993pt" viewBox="0 0 810 809.999993" version="1.2">
<defs>
<clipPath id="clip1">
  <path d="M 274.742188 226 L 534.992188 226 L 534.992188 584 L 274.742188 584 Z M 274.742188 226 "/>
</clipPath>
</defs>
<g id="surface1">
<rect x="0" y="0" width="810" height="809.999993" style="fill:rgb(100%,100%,100%);fill-opacity:1;stroke:none;"/>
<rect x="0" y="0" width="810" height="809.999993" style="fill:rgb(0%,0%,0%);fill-opacity:1;stroke:none;"/>
<g clip-path="url(#clip1)" clip-rule="nonzero">
<path style=" stroke:none;fill-rule:nonzero;fill:rgb(96.859741%,96.859741%,96.859741%);fill-opacity:1;" d="M 316.183594 267.195312 L 345.589844 237.738281 L 345.589844 280.742188 C 345.582031 281.265625 345.546875 281.792969 345.488281 282.316406 C 345.429688 282.839844 345.347656 283.359375 345.234375 283.871094 C 345.125 284.386719 344.992188 284.894531 344.832031 285.398438 C 344.671875 285.898438 344.488281 286.390625 344.28125 286.875 C 344.074219 287.359375 343.84375 287.832031 343.589844 288.292969 C 343.335938 288.753906 343.058594 289.199219 342.761719 289.636719 C 342.464844 290.070312 342.144531 290.488281 341.804688 290.890625 C 341.46875 291.292969 341.109375 291.679688 340.734375 292.046875 C 340.359375 292.414062 339.964844 292.761719 339.554688 293.09375 C 339.144531 293.421875 338.71875 293.730469 338.277344 294.015625 C 337.835938 294.304688 337.382812 294.570312 336.914062 294.8125 C 336.449219 295.058594 335.972656 295.277344 335.484375 295.472656 C 334.996094 295.667969 334.5 295.839844 333.992188 295.988281 C 333.488281 296.136719 332.976562 296.257812 332.460938 296.355469 C 331.945312 296.453125 331.421875 296.527344 330.898438 296.574219 C 330.375 296.621094 329.851562 296.640625 329.324219 296.636719 L 286.761719 296.636719 Z M 274.742188 507.996094 L 274.742188 313.109375 L 329.289062 313.109375 C 330.347656 313.105469 331.402344 313.050781 332.457031 312.941406 C 333.507812 312.832031 334.554688 312.675781 335.589844 312.464844 C 336.628906 312.253906 337.652344 311.996094 338.667969 311.683594 C 339.679688 311.375 340.671875 311.015625 341.652344 310.609375 C 342.628906 310.203125 343.582031 309.746094 344.515625 309.246094 C 345.449219 308.746094 346.355469 308.203125 347.234375 307.613281 C 348.113281 307.023438 348.964844 306.394531 349.78125 305.722656 C 350.601562 305.046875 351.382812 304.339844 352.132812 303.589844 C 352.882812 302.839844 353.59375 302.058594 354.265625 301.238281 C 354.9375 300.421875 355.570312 299.574219 356.160156 298.691406 C 356.75 297.8125 357.292969 296.90625 357.796875 295.972656 C 358.296875 295.042969 358.753906 294.085938 359.160156 293.109375 C 359.566406 292.132812 359.929688 291.136719 360.238281 290.125 C 360.550781 289.109375 360.8125 288.085938 361.023438 287.046875 C 361.234375 286.011719 361.394531 284.964844 361.5 283.910156 C 361.609375 282.855469 361.667969 281.800781 361.675781 280.742188 L 361.675781 226.164062 L 460.207031 226.164062 C 460.742188 226.164062 461.273438 226.191406 461.800781 226.242188 C 462.332031 226.296875 462.859375 226.375 463.382812 226.476562 C 463.902344 226.582031 464.417969 226.710938 464.929688 226.867188 C 465.4375 227.019531 465.941406 227.199219 466.433594 227.402344 C 466.925781 227.609375 467.40625 227.835938 467.875 228.085938 C 468.34375 228.339844 468.800781 228.613281 469.246094 228.90625 C 469.6875 229.203125 470.113281 229.519531 470.527344 229.859375 C 470.9375 230.199219 471.332031 230.554688 471.710938 230.933594 C 472.085938 231.308594 472.441406 231.703125 472.78125 232.117188 C 473.117188 232.527344 473.4375 232.957031 473.730469 233.398438 C 474.027344 233.839844 474.300781 234.296875 474.550781 234.769531 C 474.804688 235.238281 475.03125 235.71875 475.234375 236.210938 C 475.4375 236.703125 475.617188 237.207031 475.773438 237.714844 C 475.925781 238.226562 476.058594 238.742188 476.160156 239.265625 C 476.265625 239.789062 476.34375 240.316406 476.394531 240.84375 C 476.445312 241.375 476.472656 241.90625 476.472656 242.441406 L 476.472656 507.996094 C 476.472656 508.527344 476.445312 509.058594 476.394531 509.589844 C 476.34375 510.121094 476.265625 510.648438 476.160156 511.171875 C 476.058594 511.691406 475.925781 512.210938 475.773438 512.71875 C 475.617188 513.230469 475.4375 513.730469 475.234375 514.222656 C 475.03125 514.714844 474.804688 515.195312 474.550781 515.667969 C 474.300781 516.136719 474.027344 516.59375 473.730469 517.039062 C 473.4375 517.480469 473.117188 517.90625 472.78125 518.320312 C 472.441406 518.730469 472.085938 519.125 471.710938 519.503906 C 471.332031 519.878906 470.9375 520.238281 470.527344 520.574219 C 470.113281 520.914062 469.6875 521.230469 469.246094 521.527344 C 468.800781 521.824219 468.34375 522.097656 467.875 522.347656 C 467.40625 522.601562 466.925781 522.828125 466.433594 523.03125 C 465.941406 523.234375 465.4375 523.414062 464.929688 523.570312 C 464.417969 523.722656 463.902344 523.855469 463.382812 523.957031 C 462.859375 524.0625 462.332031 524.140625 461.800781 524.191406 C 461.273438 524.246094 460.742188 524.269531 460.207031 524.269531 L 291.007812 524.269531 C 290.476562 524.269531 289.945312 524.246094 289.414062 524.191406 C 288.882812 524.140625 288.359375 524.0625 287.835938 523.957031 C 287.3125 523.855469 286.796875 523.722656 286.289062 523.570312 C 285.777344 523.414062 285.277344 523.234375 284.785156 523.03125 C 284.292969 522.828125 283.8125 522.601562 283.339844 522.347656 C 282.871094 522.097656 282.414062 521.824219 281.972656 521.527344 C 281.53125 521.230469 281.101562 520.914062 280.691406 520.574219 C 280.277344 520.238281 279.882812 519.878906 279.507812 519.503906 C 279.128906 519.125 278.773438 518.730469 278.433594 518.320312 C 278.097656 517.90625 277.78125 517.480469 277.484375 517.039062 C 277.1875 516.59375 276.914062 516.136719 276.664062 515.667969 C 276.414062 515.199219 276.183594 514.714844 275.980469 514.222656 C 275.777344 513.730469 275.597656 513.230469 275.445312 512.71875 C 275.289062 512.210938 275.160156 511.691406 275.054688 511.171875 C 274.953125 510.648438 274.875 510.121094 274.820312 509.589844 C 274.769531 509.058594 274.742188 508.527344 274.742188 507.996094 Z M 535.609375 567.21875 C 535.609375 567.75 535.582031 568.285156 535.53125 568.8125 C 535.476562 569.34375 535.398438 569.871094 535.296875 570.394531 C 535.191406 570.917969 535.0625 571.433594 534.90625 571.941406 C 534.753906 572.453125 534.574219 572.953125 534.371094 573.445312 C 534.164062 573.9375 533.9375 574.421875 533.6875 574.890625 C 533.4375 575.359375 533.164062 575.816406 532.867188 576.261719 C 532.570312 576.703125 532.253906 577.132812 531.914062 577.542969 C 531.578125 577.957031 531.21875 578.351562 530.84375 578.726562 C 530.46875 579.105469 530.074219 579.460938 529.660156 579.800781 C 529.25 580.136719 528.820312 580.453125 528.378906 580.75 C 527.9375 581.046875 527.480469 581.320312 527.011719 581.570312 C 526.539062 581.824219 526.058594 582.050781 525.566406 582.253906 C 525.074219 582.457031 524.574219 582.636719 524.0625 582.792969 C 523.554688 582.949219 523.039062 583.078125 522.515625 583.179688 C 521.992188 583.285156 521.464844 583.363281 520.9375 583.414062 C 520.40625 583.46875 519.875 583.492188 519.34375 583.492188 L 350.234375 583.492188 C 349.703125 583.492188 349.167969 583.46875 348.640625 583.414062 C 348.109375 583.363281 347.582031 583.285156 347.0625 583.179688 C 346.539062 583.078125 346.023438 582.949219 345.511719 582.792969 C 345.003906 582.636719 344.5 582.457031 344.007812 582.253906 C 343.515625 582.050781 343.035156 581.824219 342.566406 581.570312 C 342.097656 581.320312 341.640625 581.046875 341.199219 580.75 C 340.753906 580.453125 340.328125 580.136719 339.914062 579.800781 C 339.503906 579.460938 339.109375 579.105469 338.734375 578.726562 C 338.355469 578.351562 338 577.957031 337.660156 577.542969 C 337.324219 577.132812 337.003906 576.703125 336.710938 576.261719 C 336.414062 575.816406 336.140625 575.359375 335.890625 574.890625 C 335.636719 574.421875 335.410156 573.9375 335.207031 573.445312 C 335.003906 572.953125 334.824219 572.453125 334.667969 571.941406 C 334.515625 571.433594 334.386719 570.917969 334.28125 570.394531 C 334.175781 569.871094 334.097656 569.34375 334.046875 568.8125 C 333.996094 568.285156 333.96875 567.75 333.96875 567.21875 L 333.96875 540.363281 L 460.191406 540.363281 C 461.253906 540.371094 462.316406 540.324219 463.378906 540.226562 C 464.441406 540.128906 465.492188 539.976562 466.539062 539.773438 C 467.585938 539.574219 468.621094 539.320312 469.640625 539.015625 C 470.660156 538.710938 471.664062 538.359375 472.652344 537.957031 C 473.640625 537.554688 474.605469 537.105469 475.546875 536.605469 C 476.488281 536.109375 477.40625 535.566406 478.292969 534.980469 C 479.183594 534.390625 480.042969 533.761719 480.867188 533.089844 C 481.695312 532.417969 482.488281 531.707031 483.246094 530.957031 C 484.003906 530.210938 484.722656 529.425781 485.402344 528.605469 C 486.082031 527.785156 486.722656 526.933594 487.320312 526.046875 C 487.914062 525.164062 488.46875 524.253906 488.976562 523.316406 C 489.484375 522.378906 489.941406 521.421875 490.355469 520.4375 C 490.769531 519.457031 491.132812 518.453125 491.449219 517.4375 C 491.761719 516.417969 492.027344 515.386719 492.242188 514.34375 C 492.453125 513.296875 492.617188 512.246094 492.726562 511.183594 C 492.835938 510.125 492.894531 509.0625 492.902344 507.996094 L 492.902344 285.386719 L 519.359375 285.386719 C 519.894531 285.386719 520.425781 285.414062 520.953125 285.46875 C 521.484375 285.519531 522.011719 285.597656 522.535156 285.703125 C 523.054688 285.804688 523.570312 285.933594 524.082031 286.089844 C 524.589844 286.242188 525.09375 286.421875 525.585938 286.628906 C 526.078125 286.832031 526.558594 287.058594 527.027344 287.308594 C 527.496094 287.5625 527.953125 287.835938 528.398438 288.132812 C 528.839844 288.425781 529.265625 288.746094 529.679688 289.082031 C 530.089844 289.421875 530.484375 289.777344 530.863281 290.15625 C 531.238281 290.53125 531.597656 290.925781 531.933594 291.339844 C 532.273438 291.75 532.589844 292.179688 532.882812 292.621094 C 533.179688 293.066406 533.453125 293.519531 533.707031 293.992188 C 533.957031 294.460938 534.183594 294.941406 534.386719 295.433594 C 534.589844 295.929688 534.769531 296.429688 534.925781 296.9375 C 535.082031 297.449219 535.210938 297.964844 535.3125 298.488281 C 535.417969 299.011719 535.496094 299.539062 535.546875 300.066406 C 535.601562 300.597656 535.625 301.128906 535.625 301.664062 Z M 535.609375 567.21875 "/>
</g>
</g>
</svg>
