<?xml version="1.0" encoding="UTF-8"?>
<svg xmlns="http://www.w3.org/2000/svg" xmlns:xlink="http://www.w3.org/1999/xlink" width="810pt" height="809.999993pt" viewBox="0 0 810 809.999993" version="1.2">
<defs>
<clipPath id="clip1">
  <path d="M 280.832031 218.917969 L 529 218.917969 L 529 590.917969 L 280.832031 590.917969 Z M 280.832031 218.917969 "/>
</clipPath>
</defs>
<g id="surface1">
<rect x="0" y="0" width="810" height="809.999993" style="fill:rgb(100%,100%,100%);fill-opacity:1;stroke:none;"/>
<rect x="0" y="0" width="810" height="809.999993" style="fill:rgb(100%,100%,100%);fill-opacity:1;stroke:none;"/>
<rect x="0" y="0" width="810" height="809.999993" style="fill:rgb(100%,100%,100%);fill-opacity:1;stroke:none;"/>
<path style=" stroke:none;fill-rule:nonzero;fill:rgb(0.779724%,2.749634%,13.328552%);fill-opacity:1;" d="M 435.960938 404.917969 C 435.960938 384.242188 469.503906 370.105469 487.632812 342.917969 C 508.300781 311.917969 508.300781 239.585938 508.300781 239.585938 L 301.617188 239.585938 C 301.617188 239.585938 301.617188 311.917969 322.285156 342.917969 C 340.410156 370.105469 373.957031 384.242188 373.957031 404.917969 C 373.957031 425.597656 340.410156 439.730469 322.285156 466.917969 C 301.617188 497.917969 301.617188 570.253906 301.617188 570.253906 L 508.300781 570.253906 C 508.300781 570.253906 508.300781 497.917969 487.632812 466.917969 C 469.503906 439.730469 435.960938 425.597656 435.960938 404.917969 Z M 435.960938 404.917969 "/>
<path style=" stroke:none;fill-rule:nonzero;fill:rgb(100%,100%,100%);fill-opacity:1;" d="M 435.949219 466.917969 C 425.625 466.917969 414.691406 456.585938 414.691406 446.253906 C 415.292969 428.550781 415.292969 416.84375 415.292969 404.917969 C 415.292969 371.644531 446.644531 357.789062 465.929688 332.585938 L 343.988281 332.585938 C 363.261719 357.789062 394.625 371.644531 394.625 404.917969 C 394.625 416.855469 394.625 428.570312 395.222656 446.253906 C 395.222656 456.585938 384.289062 466.917969 373.957031 466.917969 C 353.289062 466.917969 336.804688 485.355469 332.621094 497.917969 C 322.285156 528.917969 322.285156 570.253906 322.285156 570.253906 L 487.632812 570.253906 C 487.632812 570.253906 487.632812 528.917969 477.296875 497.917969 C 473.113281 485.355469 456.617188 466.917969 435.949219 466.917969 Z M 435.949219 466.917969 "/>
<g clip-path="url(#clip1)" clip-rule="nonzero">
<path style=" stroke:none;fill-rule:nonzero;fill:rgb(32.548523%,44.709778%,100%);fill-opacity:1;" d="M 528.96875 570.253906 C 528.96875 581.660156 519.707031 590.917969 508.300781 590.917969 L 301.617188 590.917969 C 290.207031 590.917969 280.949219 581.660156 280.949219 570.253906 C 280.949219 558.84375 290.207031 549.585938 301.617188 549.585938 L 508.300781 549.585938 C 519.707031 549.585938 528.96875 558.84375 528.96875 570.253906 Z M 528.96875 239.585938 C 528.96875 250.992188 519.707031 260.253906 508.300781 260.253906 L 301.617188 260.253906 C 290.207031 260.253906 280.949219 250.992188 280.949219 239.585938 C 280.949219 228.179688 290.207031 218.917969 301.617188 218.917969 L 508.300781 218.917969 C 519.707031 218.917969 528.96875 228.179688 528.96875 239.585938 Z M 528.96875 239.585938 "/>
</g>
</g>
</svg>
