<?xml version="1.0" encoding="UTF-8"?>
<svg xmlns="http://www.w3.org/2000/svg" xmlns:xlink="http://www.w3.org/1999/xlink" width="810pt" height="809.999993pt" viewBox="0 0 810 809.999993" version="1.2">
<defs>
<clipPath id="clip1">
  <path d="M 201.910156 201.910156 L 608.410156 201.910156 L 608.410156 608.410156 L 201.910156 608.410156 Z M 201.910156 201.910156 "/>
</clipPath>
</defs>
<g id="surface1">
<rect x="0" y="0" width="810" height="809.999993" style="fill:rgb(100%,100%,100%);fill-opacity:1;stroke:none;"/>
<rect x="0" y="0" width="810" height="809.999993" style="fill:rgb(100%,100%,100%);fill-opacity:1;stroke:none;"/>
<g clip-path="url(#clip1)" clip-rule="nonzero">
<path style=" stroke:none;fill-rule:nonzero;fill:rgb(85.099792%,85.099792%,85.099792%);fill-opacity:1;" d="M 608.410156 405.160156 C 608.410156 408.488281 608.328125 411.8125 608.164062 415.132812 C 608.003906 418.457031 607.757812 421.773438 607.433594 425.082031 C 607.105469 428.394531 606.699219 431.691406 606.210938 434.984375 C 605.722656 438.273438 605.152344 441.550781 604.503906 444.8125 C 603.855469 448.074219 603.128906 451.320312 602.320312 454.546875 C 601.511719 457.773438 600.625 460.976562 599.660156 464.160156 C 598.691406 467.34375 597.648438 470.5 596.527344 473.632812 C 595.410156 476.765625 594.210938 479.867188 592.9375 482.941406 C 591.664062 486.015625 590.320312 489.054688 588.894531 492.0625 C 587.472656 495.066406 585.980469 498.039062 584.410156 500.972656 C 582.84375 503.90625 581.203125 506.796875 579.492188 509.652344 C 577.785156 512.503906 576.003906 515.3125 574.15625 518.082031 C 572.308594 520.847656 570.394531 523.566406 568.414062 526.238281 C 566.429688 528.90625 564.386719 531.53125 562.273438 534.101562 C 560.164062 536.671875 557.992188 539.191406 555.757812 541.65625 C 553.523438 544.121094 551.230469 546.527344 548.878906 548.878906 C 546.527344 551.230469 544.121094 553.523438 541.65625 555.757812 C 539.191406 557.992188 536.671875 560.164062 534.101562 562.273438 C 531.53125 564.386719 528.90625 566.429688 526.234375 568.414062 C 523.566406 570.394531 520.847656 572.308594 518.078125 574.15625 C 515.3125 576.003906 512.503906 577.785156 509.652344 579.492188 C 506.796875 581.203125 503.90625 582.84375 500.972656 584.410156 C 498.039062 585.980469 495.066406 587.472656 492.0625 588.894531 C 489.054688 590.320312 486.015625 591.667969 482.941406 592.9375 C 479.867188 594.210938 476.765625 595.410156 473.632812 596.53125 C 470.5 597.648438 467.34375 598.691406 464.160156 599.660156 C 460.976562 600.625 457.773438 601.511719 454.546875 602.320312 C 451.320312 603.128906 448.074219 603.855469 444.8125 604.503906 C 441.550781 605.152344 438.273438 605.722656 434.984375 606.210938 C 431.691406 606.699219 428.394531 607.105469 425.082031 607.433594 C 421.773438 607.757812 418.457031 608.003906 415.132812 608.164062 C 411.8125 608.328125 408.488281 608.410156 405.160156 608.410156 C 401.835938 608.410156 398.511719 608.328125 395.1875 608.164062 C 391.863281 608.003906 388.546875 607.757812 385.238281 607.433594 C 381.929688 607.105469 378.628906 606.699219 375.335938 606.210938 C 372.046875 605.722656 368.769531 605.152344 365.507812 604.503906 C 362.246094 603.855469 359 603.128906 355.773438 602.320312 C 352.546875 601.511719 349.34375 600.625 346.160156 599.660156 C 342.976562 598.691406 339.820312 597.648438 336.6875 596.53125 C 333.554688 595.410156 330.453125 594.210938 327.378906 592.9375 C 324.308594 591.667969 321.265625 590.320312 318.261719 588.894531 C 315.253906 587.472656 312.28125 585.980469 309.347656 584.410156 C 306.414062 582.84375 303.523438 581.203125 300.667969 579.492188 C 297.816406 577.785156 295.007812 576.003906 292.242188 574.15625 C 289.476562 572.308594 286.757812 570.394531 284.085938 568.414062 C 281.414062 566.429688 278.792969 564.386719 276.21875 562.273438 C 273.648438 560.164062 271.128906 557.992188 268.667969 555.757812 C 266.203125 553.523438 263.792969 551.230469 261.441406 548.878906 C 259.089844 546.527344 256.796875 544.121094 254.5625 541.65625 C 252.328125 539.191406 250.15625 536.671875 248.046875 534.101562 C 245.9375 531.53125 243.890625 528.90625 241.910156 526.238281 C 239.925781 523.566406 238.011719 520.847656 236.164062 518.082031 C 234.316406 515.3125 232.539062 512.503906 230.828125 509.652344 C 229.117188 506.796875 227.476562 503.90625 225.910156 500.972656 C 224.34375 498.039062 222.847656 495.066406 221.425781 492.0625 C 220.003906 489.054688 218.65625 486.015625 217.382812 482.941406 C 216.109375 479.867188 214.914062 476.765625 213.792969 473.632812 C 212.671875 470.5 211.628906 467.34375 210.664062 464.160156 C 209.695312 460.976562 208.808594 457.773438 208 454.546875 C 207.191406 451.320312 206.464844 448.074219 205.816406 444.8125 C 205.167969 441.550781 204.597656 438.273438 204.109375 434.984375 C 203.621094 431.691406 203.214844 428.394531 202.890625 425.082031 C 202.5625 421.773438 202.320312 418.457031 202.15625 415.132812 C 201.992188 411.8125 201.910156 408.488281 201.910156 405.160156 C 201.910156 401.835938 201.992188 398.511719 202.15625 395.1875 C 202.320312 391.863281 202.5625 388.550781 202.890625 385.238281 C 203.214844 381.929688 203.621094 378.628906 204.109375 375.335938 C 204.597656 372.046875 205.167969 368.769531 205.816406 365.507812 C 206.464844 362.246094 207.191406 359 208 355.773438 C 208.808594 352.546875 209.695312 349.34375 210.664062 346.160156 C 211.628906 342.976562 212.671875 339.820312 213.792969 336.6875 C 214.914062 333.554688 216.109375 330.453125 217.382812 327.378906 C 218.65625 324.308594 220.003906 321.265625 221.425781 318.261719 C 222.847656 315.253906 224.34375 312.28125 225.910156 309.347656 C 227.476562 306.414062 229.117188 303.523438 230.828125 300.667969 C 232.539062 297.816406 234.316406 295.007812 236.164062 292.242188 C 238.011719 289.476562 239.925781 286.757812 241.910156 284.085938 C 243.890625 281.414062 245.9375 278.792969 248.046875 276.21875 C 250.15625 273.648438 252.328125 271.128906 254.5625 268.667969 C 256.796875 266.203125 259.089844 263.792969 261.441406 261.441406 C 263.792969 259.089844 266.203125 256.796875 268.667969 254.5625 C 271.128906 252.328125 273.648438 250.15625 276.21875 248.046875 C 278.792969 245.9375 281.414062 243.890625 284.085938 241.910156 C 286.757812 239.925781 289.476562 238.011719 292.242188 236.164062 C 295.007812 234.316406 297.816406 232.539062 300.667969 230.828125 C 303.523438 229.117188 306.414062 227.476562 309.347656 225.910156 C 312.28125 224.34375 315.253906 222.847656 318.261719 221.425781 C 321.265625 220.003906 324.308594 218.65625 327.378906 217.382812 C 330.453125 216.109375 333.554688 214.914062 336.6875 213.792969 C 339.820312 212.671875 342.976562 211.628906 346.160156 210.664062 C 349.34375 209.695312 352.546875 208.808594 355.773438 208 C 359 207.195312 362.246094 206.464844 365.507812 205.816406 C 368.769531 205.167969 372.046875 204.597656 375.335938 204.109375 C 378.628906 203.621094 381.929688 203.214844 385.238281 202.890625 C 388.546875 202.5625 391.863281 202.320312 395.1875 202.15625 C 398.511719 201.992188 401.835938 201.910156 405.160156 201.910156 C 408.488281 201.910156 411.8125 201.992188 415.132812 202.15625 C 418.457031 202.320312 421.773438 202.5625 425.082031 202.890625 C 428.394531 203.214844 431.691406 203.621094 434.984375 204.109375 C 438.273438 204.597656 441.550781 205.167969 444.8125 205.816406 C 448.074219 206.464844 451.320312 207.195312 454.546875 208 C 457.773438 208.808594 460.976562 209.695312 464.160156 210.664062 C 467.34375 211.628906 470.5 212.671875 473.632812 213.792969 C 476.765625 214.914062 479.867188 216.109375 482.941406 217.382812 C 486.015625 218.65625 489.054688 220.003906 492.0625 221.425781 C 495.066406 222.847656 498.039062 224.34375 500.972656 225.910156 C 503.90625 227.476562 506.796875 229.117188 509.652344 230.828125 C 512.503906 232.539062 515.3125 234.316406 518.078125 236.164062 C 520.847656 238.011719 523.566406 239.925781 526.234375 241.910156 C 528.90625 243.890625 531.53125 245.9375 534.101562 248.046875 C 536.671875 250.15625 539.191406 252.328125 541.65625 254.5625 C 544.121094 256.796875 546.527344 259.089844 548.878906 261.441406 C 551.230469 263.792969 553.523438 266.203125 555.757812 268.667969 C 557.992188 271.128906 560.164062 273.648438 562.273438 276.21875 C 564.386719 278.792969 566.429688 281.414062 568.414062 284.085938 C 570.394531 286.757812 572.308594 289.476562 574.15625 292.242188 C 576.003906 295.007812 577.785156 297.816406 579.492188 300.667969 C 581.203125 303.523438 582.84375 306.414062 584.410156 309.347656 C 585.980469 312.28125 587.472656 315.253906 588.894531 318.261719 C 590.320312 321.265625 591.664062 324.308594 592.9375 327.378906 C 594.210938 330.453125 595.410156 333.554688 596.527344 336.6875 C 597.648438 339.820312 598.691406 342.976562 599.660156 346.160156 C 600.625 349.34375 601.511719 352.546875 602.320312 355.773438 C 603.128906 359 603.855469 362.246094 604.503906 365.507812 C 605.152344 368.769531 605.722656 372.046875 606.210938 375.335938 C 606.699219 378.628906 607.105469 381.929688 607.433594 385.238281 C 607.757812 388.550781 608.003906 391.863281 608.164062 395.1875 C 608.328125 398.511719 608.410156 401.835938 608.410156 405.160156 Z M 608.410156 405.160156 "/>
</g>
<path style=" stroke:none;fill-rule:nonzero;fill:rgb(32.548523%,44.709778%,100%);fill-opacity:1;" d="M 387.882812 303.535156 L 422.4375 303.535156 C 423.175781 303.535156 423.910156 303.609375 424.632812 303.753906 C 425.359375 303.894531 426.0625 304.109375 426.746094 304.394531 C 427.429688 304.675781 428.078125 305.023438 428.695312 305.433594 C 429.308594 305.84375 429.878906 306.3125 430.402344 306.835938 C 430.925781 307.359375 431.390625 307.925781 431.800781 308.542969 C 432.210938 309.15625 432.558594 309.804688 432.84375 310.488281 C 433.125 311.171875 433.339844 311.875 433.484375 312.601562 C 433.628906 313.328125 433.699219 314.058594 433.699219 314.800781 L 433.699219 495.523438 C 433.699219 496.261719 433.628906 496.992188 433.484375 497.71875 C 433.339844 498.445312 433.125 499.148438 432.84375 499.832031 C 432.558594 500.515625 432.210938 501.164062 431.800781 501.78125 C 431.390625 502.394531 430.925781 502.964844 430.402344 503.488281 C 429.878906 504.007812 429.308594 504.476562 428.695312 504.886719 C 428.078125 505.296875 427.429688 505.644531 426.746094 505.929688 C 426.0625 506.210938 425.359375 506.425781 424.632812 506.570312 C 423.910156 506.714844 423.175781 506.785156 422.4375 506.785156 L 387.882812 506.785156 C 387.144531 506.785156 386.414062 506.714844 385.6875 506.570312 C 384.960938 506.425781 384.257812 506.210938 383.574219 505.929688 C 382.890625 505.644531 382.242188 505.296875 381.625 504.886719 C 381.011719 504.476562 380.441406 504.007812 379.917969 503.488281 C 379.398438 502.964844 378.929688 502.394531 378.519531 501.78125 C 378.109375 501.164062 377.761719 500.515625 377.476562 499.832031 C 377.195312 499.148438 376.980469 498.445312 376.835938 497.71875 C 376.691406 496.992188 376.621094 496.261719 376.621094 495.523438 L 376.621094 314.800781 C 376.621094 314.058594 376.691406 313.328125 376.835938 312.601562 C 376.980469 311.875 377.195312 311.171875 377.476562 310.488281 C 377.761719 309.804688 378.109375 309.15625 378.519531 308.542969 C 378.929688 307.925781 379.398438 307.359375 379.917969 306.835938 C 380.441406 306.3125 381.011719 305.84375 381.625 305.433594 C 382.242188 305.023438 382.890625 304.675781 383.574219 304.394531 C 384.257812 304.109375 384.960938 303.894531 385.6875 303.753906 C 386.414062 303.609375 387.144531 303.535156 387.882812 303.535156 Z M 387.882812 303.535156 "/>
<path style=" stroke:none;fill-rule:nonzero;fill:rgb(32.548523%,44.709778%,100%);fill-opacity:1;" d="M 506.785156 387.882812 L 506.785156 422.4375 C 506.785156 423.175781 506.714844 423.910156 506.570312 424.632812 C 506.425781 425.359375 506.210938 426.0625 505.929688 426.746094 C 505.644531 427.429688 505.296875 428.078125 504.886719 428.695312 C 504.476562 429.308594 504.007812 429.878906 503.488281 430.402344 C 502.964844 430.925781 502.394531 431.390625 501.78125 431.800781 C 501.164062 432.210938 500.515625 432.558594 499.832031 432.84375 C 499.148438 433.125 498.445312 433.339844 497.71875 433.484375 C 496.992188 433.628906 496.261719 433.699219 495.523438 433.699219 L 314.800781 433.699219 C 314.058594 433.699219 313.328125 433.628906 312.601562 433.484375 C 311.875 433.339844 311.171875 433.125 310.488281 432.84375 C 309.804688 432.558594 309.15625 432.210938 308.542969 431.800781 C 307.925781 431.390625 307.355469 430.925781 306.835938 430.402344 C 306.3125 429.878906 305.84375 429.308594 305.433594 428.695312 C 305.023438 428.078125 304.675781 427.429688 304.394531 426.746094 C 304.109375 426.0625 303.894531 425.359375 303.75 424.632812 C 303.609375 423.910156 303.535156 423.175781 303.535156 422.4375 L 303.535156 387.882812 C 303.535156 387.144531 303.609375 386.414062 303.75 385.6875 C 303.894531 384.960938 304.109375 384.257812 304.394531 383.574219 C 304.675781 382.890625 305.023438 382.242188 305.433594 381.625 C 305.84375 381.011719 306.3125 380.441406 306.835938 379.917969 C 307.355469 379.398438 307.925781 378.929688 308.542969 378.519531 C 309.15625 378.109375 309.804688 377.761719 310.488281 377.476562 C 311.171875 377.195312 311.875 376.980469 312.601562 376.835938 C 313.328125 376.691406 314.058594 376.621094 314.800781 376.621094 L 495.523438 376.621094 C 496.261719 376.621094 496.992188 376.691406 497.71875 376.835938 C 498.445312 376.980469 499.148438 377.195312 499.832031 377.476562 C 500.515625 377.761719 501.164062 378.109375 501.78125 378.519531 C 502.394531 378.929688 502.964844 379.398438 503.488281 379.917969 C 504.007812 380.441406 504.476562 381.011719 504.886719 381.625 C 505.296875 382.242188 505.644531 382.890625 505.929688 383.574219 C 506.210938 384.257812 506.425781 384.960938 506.570312 385.6875 C 506.714844 386.414062 506.785156 387.144531 506.785156 387.882812 Z M 506.785156 387.882812 "/>
</g>
</svg>
