<?xml version="1.0" encoding="UTF-8"?>
<svg xmlns="http://www.w3.org/2000/svg" xmlns:xlink="http://www.w3.org/1999/xlink" width="810pt" height="809.999993pt" viewBox="0 0 810 809.999993" version="1.2">
<defs>
<clipPath id="clip1">
  <path d="M 250.144531 201.910156 L 559.894531 201.910156 L 559.894531 608.410156 L 250.144531 608.410156 Z M 250.144531 201.910156 "/>
</clipPath>
</defs>
<g id="surface1">
<rect x="0" y="0" width="810" height="809.999993" style="fill:rgb(100%,100%,100%);fill-opacity:1;stroke:none;"/>
<rect x="0" y="0" width="810" height="809.999993" style="fill:rgb(100%,100%,100%);fill-opacity:1;stroke:none;"/>
<g clip-path="url(#clip1)" clip-rule="nonzero">
<path style=" stroke:none;fill-rule:nonzero;fill:rgb(0%,0%,0%);fill-opacity:1;" d="M 405.042969 201.910156 C 340.734375 201.910156 288.957031 253.753906 288.957031 318.148438 L 288.957031 337.519531 C 267.675781 337.519531 250.261719 354.957031 250.261719 376.265625 L 250.261719 569.992188 C 250.261719 591.304688 267.675781 608.738281 288.957031 608.738281 L 521.125 608.738281 C 542.410156 608.738281 559.820312 591.304688 559.820312 569.992188 L 559.820312 376.265625 C 559.820312 354.957031 542.410156 337.519531 521.125 337.519531 L 521.125 318.148438 C 521.125 253.753906 469.347656 201.910156 405.042969 201.910156 Z M 405.042969 240.65625 C 449.082031 240.65625 482.433594 274.050781 482.433594 318.148438 L 482.433594 337.519531 L 327.652344 337.519531 L 327.652344 318.148438 C 327.652344 274.050781 361.003906 240.65625 405.042969 240.65625 Z M 327.652344 453.757812 C 338.292969 453.757812 347 462.472656 347 473.128906 C 347 483.785156 338.292969 492.503906 327.652344 492.503906 C 317.011719 492.503906 308.304688 483.785156 308.304688 473.128906 C 308.304688 462.472656 317.011719 453.757812 327.652344 453.757812 Z M 405.042969 453.757812 C 415.683594 453.757812 424.390625 462.472656 424.390625 473.128906 C 424.390625 483.785156 415.683594 492.503906 405.042969 492.503906 C 394.402344 492.503906 385.695312 483.785156 385.695312 473.128906 C 385.695312 462.472656 394.402344 453.757812 405.042969 453.757812 Z M 482.433594 453.757812 C 493.074219 453.757812 501.78125 462.472656 501.78125 473.128906 C 501.78125 483.785156 493.074219 492.503906 482.433594 492.503906 C 471.792969 492.503906 463.085938 483.785156 463.085938 473.128906 C 463.085938 462.472656 471.792969 453.757812 482.433594 453.757812 Z M 482.433594 453.757812 "/>
</g>
</g>
</svg>
