<?xml version="1.0" encoding="UTF-8"?>
<svg xmlns="http://www.w3.org/2000/svg" xmlns:xlink="http://www.w3.org/1999/xlink" width="810pt" height="809.999993pt" viewBox="0 0 810 809.999993" version="1.2">
<defs>
<clipPath id="clip1">
  <path d="M 201.910156 201.910156 L 608.410156 201.910156 L 608.410156 608.410156 L 201.910156 608.410156 Z M 201.910156 201.910156 "/>
</clipPath>
</defs>
<g id="surface1">
<rect x="0" y="0" width="810" height="809.999993" style="fill:rgb(100%,100%,100%);fill-opacity:1;stroke:none;"/>
<rect x="0" y="0" width="810" height="809.999993" style="fill:rgb(100%,100%,100%);fill-opacity:1;stroke:none;"/>
<g clip-path="url(#clip1)" clip-rule="nonzero">
<path style=" stroke:none;fill-rule:nonzero;fill:rgb(96.859741%,96.859741%,96.859741%);fill-opacity:1;" d="M 405.160156 201.910156 C 292.914062 201.910156 201.910156 292.914062 201.910156 405.160156 C 201.910156 517.410156 292.914062 608.410156 405.160156 608.410156 C 517.410156 608.410156 608.410156 517.410156 608.410156 405.160156 C 608.410156 292.914062 517.410156 201.910156 405.160156 201.910156 Z M 405.160156 554.210938 C 322.992188 554.210938 256.109375 487.355469 256.109375 405.160156 C 256.109375 322.964844 322.992188 256.109375 405.160156 256.109375 C 487.328125 256.109375 554.210938 322.964844 554.210938 405.160156 C 554.210938 487.355469 487.328125 554.210938 405.160156 554.210938 Z M 405.160156 554.210938 "/>
</g>
<path style=" stroke:none;fill-rule:nonzero;fill:rgb(96.859741%,96.859741%,96.859741%);fill-opacity:1;" d="M 527.109375 405.160156 C 527.109375 407.15625 527.0625 409.152344 526.964844 411.144531 C 526.867188 413.136719 526.71875 415.128906 526.523438 417.113281 C 526.328125 419.101562 526.082031 421.082031 525.789062 423.054688 C 525.496094 425.027344 525.15625 426.996094 524.765625 428.953125 C 524.378906 430.910156 523.941406 432.855469 523.457031 434.792969 C 522.972656 436.726562 522.4375 438.652344 521.859375 440.5625 C 521.28125 442.46875 520.652344 444.363281 519.980469 446.246094 C 519.308594 448.125 518.589844 449.984375 517.828125 451.828125 C 517.0625 453.671875 516.253906 455.496094 515.402344 457.300781 C 514.546875 459.105469 513.652344 460.886719 512.710938 462.648438 C 511.769531 464.40625 510.785156 466.144531 509.761719 467.855469 C 508.734375 469.566406 507.667969 471.253906 506.558594 472.914062 C 505.449219 474.570312 504.300781 476.203125 503.113281 477.804688 C 501.921875 479.410156 500.695312 480.980469 499.429688 482.523438 C 498.164062 484.066406 496.859375 485.578125 495.519531 487.058594 C 494.179688 488.535156 492.804688 489.980469 491.390625 491.390625 C 489.980469 492.804688 488.535156 494.179688 487.058594 495.519531 C 485.578125 496.859375 484.066406 498.164062 482.523438 499.429688 C 480.980469 500.695312 479.410156 501.921875 477.804688 503.113281 C 476.203125 504.300781 474.570312 505.449219 472.914062 506.558594 C 471.253906 507.667969 469.566406 508.734375 467.855469 509.761719 C 466.144531 510.785156 464.40625 511.769531 462.648438 512.710938 C 460.886719 513.652344 459.105469 514.546875 457.300781 515.402344 C 455.496094 516.253906 453.671875 517.0625 451.828125 517.828125 C 449.984375 518.589844 448.125 519.308594 446.242188 519.980469 C 444.363281 520.652344 442.46875 521.28125 440.5625 521.859375 C 438.652344 522.4375 436.726562 522.972656 434.792969 523.457031 C 432.855469 523.941406 430.910156 524.378906 428.953125 524.765625 C 426.996094 525.15625 425.027344 525.496094 423.054688 525.789062 C 421.078125 526.082031 419.101562 526.328125 417.113281 526.523438 C 415.128906 526.71875 413.136719 526.867188 411.144531 526.964844 C 409.152344 527.0625 407.15625 527.109375 405.160156 527.109375 C 403.164062 527.109375 401.171875 527.0625 399.175781 526.964844 C 397.183594 526.867188 395.195312 526.71875 393.207031 526.523438 C 391.222656 526.328125 389.242188 526.082031 387.265625 525.789062 C 385.292969 525.496094 383.328125 525.15625 381.367188 524.765625 C 379.410156 524.378906 377.464844 523.941406 375.527344 523.457031 C 373.59375 522.972656 371.671875 522.4375 369.761719 521.859375 C 367.851562 521.28125 365.957031 520.652344 364.078125 519.980469 C 362.199219 519.308594 360.335938 518.589844 358.492188 517.828125 C 356.648438 517.0625 354.824219 516.253906 353.019531 515.402344 C 351.214844 514.546875 349.433594 513.652344 347.671875 512.710938 C 345.914062 511.769531 344.175781 510.785156 342.464844 509.761719 C 340.753906 508.734375 339.066406 507.667969 337.410156 506.558594 C 335.75 505.449219 334.117188 504.300781 332.515625 503.113281 C 330.910156 501.921875 329.339844 500.695312 327.796875 499.429688 C 326.253906 498.164062 324.742188 496.859375 323.265625 495.519531 C 321.785156 494.179688 320.339844 492.804688 318.929688 491.390625 C 317.515625 489.980469 316.140625 488.535156 314.800781 487.058594 C 313.460938 485.578125 312.15625 484.066406 310.890625 482.523438 C 309.625 480.980469 308.398438 479.410156 307.210938 477.804688 C 306.019531 476.203125 304.871094 474.570312 303.761719 472.914062 C 302.652344 471.253906 301.585938 469.566406 300.558594 467.855469 C 299.535156 466.144531 298.550781 464.40625 297.609375 462.648438 C 296.667969 460.886719 295.773438 459.105469 294.917969 457.300781 C 294.066406 455.496094 293.257812 453.671875 292.492188 451.828125 C 291.730469 449.984375 291.011719 448.125 290.339844 446.246094 C 289.667969 444.363281 289.039062 442.46875 288.460938 440.5625 C 287.882812 438.652344 287.351562 436.726562 286.863281 434.792969 C 286.378906 432.855469 285.941406 430.910156 285.554688 428.953125 C 285.164062 426.996094 284.824219 425.027344 284.53125 423.054688 C 284.238281 421.082031 283.992188 419.101562 283.796875 417.113281 C 283.601562 415.128906 283.457031 413.136719 283.355469 411.144531 C 283.257812 409.152344 283.210938 407.15625 283.210938 405.160156 C 283.210938 403.164062 283.257812 401.171875 283.355469 399.175781 C 283.457031 397.183594 283.601562 395.195312 283.796875 393.207031 C 283.992188 391.222656 284.238281 389.242188 284.53125 387.265625 C 284.824219 385.292969 285.164062 383.328125 285.554688 381.371094 C 285.941406 379.410156 286.378906 377.464844 286.863281 375.527344 C 287.351562 373.59375 287.882812 371.671875 288.460938 369.761719 C 289.039062 367.851562 289.667969 365.957031 290.339844 364.078125 C 291.011719 362.199219 291.730469 360.335938 292.492188 358.492188 C 293.257812 356.648438 294.066406 354.824219 294.917969 353.019531 C 295.773438 351.214844 296.667969 349.433594 297.609375 347.671875 C 298.550781 345.914062 299.535156 344.175781 300.558594 342.464844 C 301.585938 340.753906 302.652344 339.066406 303.761719 337.410156 C 304.871094 335.75 306.019531 334.117188 307.210938 332.515625 C 308.398438 330.910156 309.625 329.339844 310.890625 327.796875 C 312.15625 326.253906 313.460938 324.742188 314.800781 323.265625 C 316.140625 321.785156 317.515625 320.339844 318.929688 318.929688 C 320.339844 317.519531 321.785156 316.140625 323.265625 314.800781 C 324.742188 313.460938 326.253906 312.15625 327.796875 310.890625 C 329.339844 309.625 330.910156 308.398438 332.515625 307.210938 C 334.117188 306.019531 335.75 304.871094 337.410156 303.761719 C 339.066406 302.652344 340.753906 301.585938 342.464844 300.558594 C 344.175781 299.535156 345.914062 298.550781 347.671875 297.609375 C 349.433594 296.667969 351.214844 295.773438 353.019531 294.917969 C 354.824219 294.066406 356.648438 293.257812 358.492188 292.492188 C 360.335938 291.730469 362.199219 291.011719 364.078125 290.339844 C 365.957031 289.667969 367.851562 289.042969 369.761719 288.460938 C 371.671875 287.882812 373.59375 287.351562 375.527344 286.867188 C 377.464844 286.378906 379.410156 285.941406 381.367188 285.554688 C 383.328125 285.164062 385.292969 284.824219 387.265625 284.53125 C 389.242188 284.238281 391.222656 283.992188 393.207031 283.796875 C 395.195312 283.601562 397.183594 283.457031 399.175781 283.359375 C 401.171875 283.257812 403.164062 283.210938 405.160156 283.210938 C 407.15625 283.210938 409.152344 283.257812 411.144531 283.359375 C 413.136719 283.457031 415.128906 283.601562 417.113281 283.796875 C 419.101562 283.992188 421.078125 284.238281 423.054688 284.53125 C 425.027344 284.824219 426.996094 285.164062 428.953125 285.554688 C 430.910156 285.941406 432.855469 286.378906 434.792969 286.867188 C 436.726562 287.351562 438.652344 287.882812 440.5625 288.460938 C 442.46875 289.042969 444.363281 289.667969 446.242188 290.339844 C 448.125 291.011719 449.984375 291.730469 451.828125 292.492188 C 453.671875 293.257812 455.496094 294.066406 457.300781 294.917969 C 459.105469 295.773438 460.886719 296.667969 462.648438 297.609375 C 464.40625 298.550781 466.144531 299.535156 467.855469 300.558594 C 469.566406 301.585938 471.253906 302.652344 472.914062 303.761719 C 474.570312 304.871094 476.203125 306.019531 477.804688 307.210938 C 479.410156 308.398438 480.980469 309.625 482.523438 310.890625 C 484.066406 312.15625 485.578125 313.460938 487.058594 314.800781 C 488.535156 316.140625 489.980469 317.519531 491.390625 318.929688 C 492.804688 320.339844 494.179688 321.785156 495.519531 323.265625 C 496.859375 324.742188 498.164062 326.253906 499.429688 327.796875 C 500.695312 329.339844 501.921875 330.910156 503.113281 332.515625 C 504.300781 334.117188 505.449219 335.75 506.558594 337.410156 C 507.667969 339.066406 508.734375 340.753906 509.761719 342.464844 C 510.785156 344.175781 511.769531 345.914062 512.710938 347.671875 C 513.652344 349.433594 514.546875 351.214844 515.402344 353.019531 C 516.253906 354.824219 517.0625 356.648438 517.828125 358.492188 C 518.589844 360.335938 519.308594 362.199219 519.980469 364.078125 C 520.652344 365.957031 521.28125 367.851562 521.859375 369.761719 C 522.4375 371.671875 522.972656 373.59375 523.457031 375.527344 C 523.941406 377.464844 524.378906 379.410156 524.765625 381.371094 C 525.15625 383.328125 525.496094 385.292969 525.789062 387.265625 C 526.082031 389.242188 526.328125 391.222656 526.523438 393.207031 C 526.71875 395.195312 526.867188 397.183594 526.964844 399.175781 C 527.0625 401.171875 527.109375 403.164062 527.109375 405.160156 Z M 527.109375 405.160156 "/>
</g>
</svg>
