<?xml version="1.0" encoding="UTF-8"?>
<svg xmlns="http://www.w3.org/2000/svg" xmlns:xlink="http://www.w3.org/1999/xlink" width="810pt" height="809.999993pt" viewBox="0 0 810 809.999993" version="1.2">
<defs>
<clipPath id="clip1">
  <path d="M 202 218.917969 L 608.410156 218.917969 L 608.410156 590.917969 L 202 590.917969 Z M 202 218.917969 "/>
</clipPath>
</defs>
<g id="surface1">
<rect x="0" y="0" width="810" height="809.999993" style="fill:rgb(100%,100%,100%);fill-opacity:1;stroke:none;"/>
<rect x="0" y="0" width="810" height="809.999993" style="fill:rgb(100%,100%,100%);fill-opacity:1;stroke:none;"/>
<g clip-path="url(#clip1)" clip-rule="nonzero">
<path style=" stroke:none;fill-rule:nonzero;fill:rgb(0%,0%,0%);fill-opacity:1;" d="M 557.527344 218.917969 L 252.792969 218.917969 C 224.792969 218.917969 202.003906 241.679688 202.003906 269.644531 L 202.003906 540.191406 C 202.003906 568.160156 224.792969 590.917969 252.792969 590.917969 L 557.527344 590.917969 C 585.527344 590.917969 608.316406 568.160156 608.316406 540.191406 L 608.316406 269.644531 C 608.316406 241.679688 585.527344 218.917969 557.527344 218.917969 Z M 557.527344 218.917969 "/>
</g>
<path style=" stroke:none;fill-rule:nonzero;fill:rgb(0%,0%,0%);fill-opacity:1;" d="M 557.527344 557.101562 L 252.792969 557.101562 C 243.464844 557.101562 235.863281 549.527344 235.863281 540.191406 L 235.863281 303.464844 L 574.457031 303.464844 L 574.457031 540.191406 C 574.457031 549.527344 566.855469 557.101562 557.527344 557.101562 Z M 557.527344 557.101562 "/>
<path style=" stroke:none;fill-rule:nonzero;fill:rgb(100%,100%,100%);fill-opacity:1;" d="M 491.839844 523.28125 L 318.480469 523.28125 C 312.300781 523.28125 307.035156 518.851562 305.96875 512.765625 L 286.839844 402.855469 C 286.042969 398.308594 287.785156 393.691406 291.394531 390.800781 C 294.980469 387.910156 299.875 387.179688 304.15625 388.941406 L 356.046875 410.109375 L 394.140625 343.65625 C 398.675781 335.761719 411.644531 335.761719 416.183594 343.65625 L 454.273438 410.109375 L 506.164062 388.941406 C 510.445312 387.179688 515.320312 387.910156 518.929688 390.800781 C 522.515625 393.691406 524.261719 398.308594 523.480469 402.855469 L 504.351562 512.765625 C 503.285156 518.851562 498.003906 523.28125 491.839844 523.28125 Z M 491.839844 523.28125 "/>
</g>
</svg>
