<?xml version="1.0" encoding="UTF-8"?>
<svg xmlns="http://www.w3.org/2000/svg" xmlns:xlink="http://www.w3.org/1999/xlink" width="810pt" height="809.999993pt" viewBox="0 0 810 809.999993" version="1.2">
<defs>
<clipPath id="clip1">
  <path d="M 218.917969 250 L 560 250 L 560 590.917969 L 218.917969 590.917969 Z M 218.917969 250 "/>
</clipPath>
</defs>
<g id="surface1">
<rect x="0" y="0" width="810" height="809.999993" style="fill:rgb(100%,100%,100%);fill-opacity:1;stroke:none;"/>
<rect x="0" y="0" width="810" height="809.999993" style="fill:rgb(0%,0%,0%);fill-opacity:1;stroke:none;"/>
<g clip-path="url(#clip1)" clip-rule="nonzero">
<path style=" stroke:none;fill-rule:nonzero;fill:rgb(96.859741%,96.859741%,96.859741%);fill-opacity:1;" d="M 531.285156 562.523438 L 247.316406 562.523438 L 247.316406 278.550781 L 417.699219 278.550781 L 417.699219 250.15625 L 247.316406 250.15625 C 231.640625 250.15625 218.917969 262.878906 218.917969 278.550781 L 218.917969 562.523438 C 218.917969 578.195312 231.640625 590.917969 247.316406 590.917969 L 531.285156 590.917969 C 546.960938 590.917969 559.683594 578.195312 559.683594 562.523438 L 559.683594 392.140625 L 531.285156 392.140625 Z M 531.285156 562.523438 "/>
</g>
<path style=" stroke:none;fill-rule:nonzero;fill:rgb(96.859741%,96.859741%,96.859741%);fill-opacity:1;" d="M 332.507812 477.785156 L 392.28125 477.785156 L 537.164062 332.902344 L 476.933594 272.675781 L 332.507812 417.101562 Z M 332.507812 477.785156 "/>
<path style=" stroke:none;fill-rule:nonzero;fill:rgb(96.859741%,96.859741%,96.859741%);fill-opacity:1;" d="M 579.757812 250.15625 L 559.683594 230.078125 C 548.578125 218.976562 530.605469 218.976562 519.527344 230.078125 L 497.011719 252.597656 L 557.242188 312.828125 L 579.757812 290.308594 C 590.863281 279.207031 590.863281 261.230469 579.757812 250.15625 Z M 579.757812 250.15625 "/>
</g>
</svg>
