<?xml version="1.0" encoding="UTF-8"?>
<svg xmlns="http://www.w3.org/2000/svg" xmlns:xlink="http://www.w3.org/1999/xlink" width="810pt" height="809.999993pt" viewBox="0 0 810 809.999993" version="1.2">
<defs>
<clipPath id="clip1">
  <path d="M 242.179688 218.917969 L 567.679688 218.917969 L 567.679688 312 L 242.179688 312 Z M 242.179688 218.917969 "/>
</clipPath>
<clipPath id="clip2">
  <path d="M 265 335 L 545 335 L 545 590.917969 L 265 590.917969 Z M 265 335 "/>
</clipPath>
</defs>
<g id="surface1">
<rect x="0" y="0" width="810" height="809.999993" style="fill:rgb(100%,100%,100%);fill-opacity:1;stroke:none;"/>
<rect x="0" y="0" width="810" height="809.999993" style="fill:rgb(0%,0%,0%);fill-opacity:1;stroke:none;"/>
<g clip-path="url(#clip1)" clip-rule="nonzero">
<path style=" stroke:none;fill-rule:nonzero;fill:rgb(96.859741%,96.859741%,96.859741%);fill-opacity:1;" d="M 556.050781 264.546875 L 474.675781 264.546875 L 474.675781 230.542969 C 474.675781 224.152344 469.445312 218.917969 463.054688 218.917969 L 346.804688 218.917969 C 340.410156 218.917969 335.179688 224.152344 335.179688 230.542969 L 335.179688 264.546875 L 253.808594 264.546875 C 247.414062 264.546875 242.183594 269.777344 242.183594 276.171875 L 242.183594 299.421875 C 242.183594 305.816406 247.414062 311.046875 253.808594 311.046875 L 556.050781 311.046875 C 562.445312 311.046875 567.675781 305.816406 567.675781 299.421875 L 567.675781 276.171875 C 567.675781 269.777344 562.445312 264.546875 556.050781 264.546875 Z M 556.050781 264.546875 "/>
</g>
<g clip-path="url(#clip2)" clip-rule="nonzero">
<path style=" stroke:none;fill-rule:nonzero;fill:rgb(96.859741%,96.859741%,96.859741%);fill-opacity:1;" d="M 293.332031 580.746094 C 293.914062 586.558594 298.855469 590.917969 304.957031 590.917969 L 505.191406 590.917969 C 511.003906 590.917969 515.945312 586.558594 516.816406 580.746094 L 544.714844 335.460938 L 265.433594 335.460938 Z M 451.429688 542.964844 L 471.773438 380.507812 C 472.644531 374.113281 478.457031 369.753906 484.847656 370.335938 C 491.242188 371.207031 495.601562 377.019531 495.019531 383.414062 L 474.675781 545.871094 C 473.804688 551.683594 468.867188 556.042969 463.054688 556.042969 C 462.472656 556.042969 462.179688 556.042969 461.601562 556.042969 C 455.207031 555.171875 450.847656 549.359375 451.429688 542.964844 Z M 393.304688 381.960938 C 393.304688 375.566406 398.535156 370.335938 404.929688 370.335938 C 411.324219 370.335938 416.554688 375.566406 416.554688 381.960938 L 416.554688 544.417969 C 416.554688 550.8125 411.324219 556.042969 404.929688 556.042969 C 398.535156 556.042969 393.304688 550.8125 393.304688 544.417969 Z M 325.007812 370.335938 C 331.402344 369.464844 337.214844 374.113281 338.085938 380.507812 L 358.429688 542.964844 C 359.300781 549.359375 354.652344 555.171875 348.257812 556.042969 C 347.675781 556.042969 347.386719 556.042969 346.804688 556.042969 C 340.992188 556.042969 336.050781 551.683594 335.179688 545.871094 L 314.835938 383.414062 C 314.257812 377.019531 318.617188 371.207031 325.007812 370.335938 Z M 325.007812 370.335938 "/>
</g>
</g>
</svg>
